<?xml version="1.0" encoding="UTF-8" standalone="no"?>
<!-- Generator: Adobe Illustrator 12.0.0, SVG Export Plug-In . SVG Version: 6.00 Build 51448)  -->

<svg
   xmlns:dc="http://purl.org/dc/elements/1.1/"
   xmlns:cc="http://creativecommons.org/ns#"
   xmlns:rdf="http://www.w3.org/1999/02/22-rdf-syntax-ns#"
   xmlns:svg="http://www.w3.org/2000/svg"
   xmlns="http://www.w3.org/2000/svg"
   xmlns:sodipodi="http://sodipodi.sourceforge.net/DTD/sodipodi-0.dtd"
   xmlns:inkscape="http://www.inkscape.org/namespaces/inkscape"
   version="1.1"
   id="Layer_1"
   width="1000"
   height="509.58301"
   viewBox="0 0 999.99997 509.58303"
   overflow="visible"
   enable-background="new 0 0 371.549 47.788"
   xml:space="preserve"
   sodipodi:docname="Hyundai H (Print).svg"
   style="overflow:visible"
   inkscape:version="0.92.2 (5c3e80d, 2017-08-06)"><metadata
     id="metadata839"><rdf:RDF><cc:Work
         rdf:about=""><dc:format>image/svg+xml</dc:format><dc:type
           rdf:resource="http://purl.org/dc/dcmitype/StillImage" /><dc:title></dc:title></cc:Work></rdf:RDF></metadata><defs
     id="defs837" /><sodipodi:namedview
     pagecolor="#ffffff"
     bordercolor="#666666"
     borderopacity="1"
     objecttolerance="10"
     gridtolerance="10"
     guidetolerance="10"
     inkscape:pageopacity="0"
     inkscape:pageshadow="2"
     inkscape:window-width="1366"
     inkscape:window-height="705"
     id="namedview835"
     showgrid="false"
     inkscape:zoom="0.59615285"
     inkscape:cx="289.03775"
     inkscape:cy="148.08288"
     inkscape:window-x="-8"
     inkscape:window-y="-8"
     inkscape:window-maximized="1"
     inkscape:current-layer="Layer_1" /><path
     style="clip-rule:evenodd;fill:#000000;fill-rule:evenodd;stroke-width:10.66327381"
     inkscape:connector-curvature="0"
     id="path830"
     d="m 604.68452,313.67861 c 7.61357,39.34748 -13.00919,72.03041 -30.1451,103.75364 -19.03391,29.51595 -50.44794,54.88388 -88.20657,51.08776 -84.73038,-1.26893 -167.54137,-14.27813 -244.33827,-37.4494 -3.48689,-0.94904 -6.97378,-3.17767 -8.88251,-6.34468 -1.58882,-4.44655 0.6398,-8.57326 3.80679,-11.42034 70.13235,-56.80327 153.58313,-83.1309 236.0849,-110.74877 30.77418,-8.88251 63.4678,-18.40482 98.0488,-13.95823 14.26743,1.90873 28.54556,11.75093 33.63196,25.08002 z m 289.07066,-168.1705 c 39.34748,32.36304 74.88819,76.47701 62.82803,129.78271 -19.67372,78.69497 -105.34248,120.5803 -173.5661,147.22784 -37.12952,12.38004 -74.56826,25.08001 -115.18467,28.8868 -2.5379,-0.31973 -6.66457,0.30903 -7.30438,-3.49756 l 0.94904,-4.43593 c 57.75228,-65.05662 101.5357,-138.02541 139.9448,-211.96455 17.76502,-33.32273 34.27177,-67.58383 49.49894,-101.22646 2.21793,-2.53786 4.44656,-3.80679 6.98445,-4.75582 14.26743,1.25826 24.42955,12.3694 35.84989,19.98297 z m -553.72246,-83.770665 -1.26893,4.75582 C 255.31301,161.3644 200.41848,271.47337 148.3817,380.94254 138.23026,390.46484 128.38806,377.76488 119.18566,373.6382 72.853732,343.18389 30.968392,293.99421 43.028556,235.61278 62.382395,159.46634 140.75746,118.84993 206.13399,91.253385 c 38.70768,-14.59802 79.01486,-26.33829 121.52933,-33.00283 4.44659,-0.0107 10.15144,-0.6398 12.3694,3.48689 z m 414.10825,15.22715 c 4.75582,2.53786 10.4713,3.48689 13.32908,8.24271 2.53786,5.39562 -2.53785,8.88251 -5.39563,12.38006 -65.68577,51.396975 -140.88314,79.963885 -217.68007,105.033245 -39.03825,9.5223 -78.3857,26.65818 -121.84923,17.13588 -10.16208,-2.53786 -19.35383,-9.20241 -25.06936,-19.04461 -10.79122,-29.82517 3.80679,-60.91928 16.4961,-86.93767 16.81598,-32.682925 46.65182,-71.081375 87.89738,-71.710505 88.84639,-0.6398 172.61706,12.68929 252.27173,34.90089 z m 109.78907,2.53786 C 931.20462,116.31207 1007.3617,181.03814 999.42824,267.34668 990.22583,347.31058 915.65757,403.15413 849.02276,436.79679 654.50331,529.76984 381.29959,532.61696 180.4355,451.3948 112.52111,423.15843 36.364008,374.60856 7.7970978,301.61845 -14.094603,241.64819 12.552918,179.14008 57.306678,137.57464 150.90889,52.535035 270.22027,23.349655 393.02919,6.5230049 c 133.28025,-16.18685 273.52362,-1.90872 392.835,39.0275901 26.65821,9.8422 52.99649,20.63343 78.06585,33.95186 z" /></svg>